<svg xmlns="http://www.w3.org/2000/svg" xmlns:xlink="http://www.w3.org/1999/xlink" width="1080" zoomAndPan="magnify" viewBox="0 0 810 809.999993" height="1080" preserveAspectRatio="xMidYMid meet" version="1.0"><defs><clipPath id="67bbad0213"><path d="M 256.359375 81 L 562.359375 81 L 562.359375 729 L 256.359375 729 Z M 256.359375 81 " clip-rule="nonzero"/></clipPath></defs><g clip-path="url(#67bbad0213)"><path fill="#cae6d5" d="M 492.09375 188.410156 L 562.742188 188.410156 L 562.742188 81.839844 L 472.4375 81.839844 L 472.4375 82.234375 C 353.800781 86.53125 329.453125 153.113281 327.292969 223.257812 L 327.074219 223.257812 L 327.074219 297.25 L 256.414062 297.25 L 256.414062 403.882812 L 327.074219 403.882812 L 327.074219 728.195312 L 453.902344 728.195312 L 453.902344 403.882812 L 544.796875 403.882812 L 562.742188 297.25 L 453.902344 297.25 L 453.902344 231.070312 C 453.902344 207.53125 469.601562 188.410156 492.09375 188.410156 Z M 492.09375 188.410156 " fill-opacity="1" fill-rule="nonzero"/></g></svg>