<svg xmlns="http://www.w3.org/2000/svg" xmlns:xlink="http://www.w3.org/1999/xlink" width="1080" zoomAndPan="magnify" viewBox="0 0 810 809.999993" height="1080" preserveAspectRatio="xMidYMid meet" version="1.0"><defs><clipPath id="8b95c97a3f"><path d="M 90.570312 90.570312 L 728.820312 90.570312 L 728.820312 728.820312 L 90.570312 728.820312 Z M 90.570312 90.570312 " clip-rule="nonzero"/></clipPath></defs><g clip-path="url(#8b95c97a3f)"><path fill="#cae6d5" d="M 409.644531 148.132812 C 494.832031 148.132812 504.90625 148.414062 538.617188 149.953125 C 569.671875 151.351562 586.597656 156.527344 597.925781 161.003906 C 612.753906 166.738281 623.386719 173.730469 634.574219 184.921875 C 645.765625 196.113281 652.621094 206.746094 658.496094 221.570312 C 662.832031 232.761719 668.007812 249.6875 669.546875 280.882812 C 671.085938 314.59375 671.367188 324.664062 671.367188 409.855469 C 671.367188 495.042969 671.085938 505.113281 669.546875 538.828125 C 668.148438 569.878906 662.972656 586.804688 658.496094 598.136719 C 652.761719 612.964844 645.765625 623.59375 634.574219 634.785156 C 623.386719 645.976562 612.753906 652.832031 597.925781 658.707031 C 586.734375 663.042969 569.808594 668.21875 538.617188 669.757812 C 504.90625 671.296875 494.832031 671.574219 409.644531 671.574219 C 324.457031 671.574219 314.382812 671.296875 280.671875 669.757812 C 249.617188 668.359375 232.691406 663.183594 221.363281 658.707031 C 206.535156 652.972656 195.902344 645.976562 184.710938 634.785156 C 173.523438 623.59375 166.667969 612.964844 160.792969 598.136719 C 156.457031 586.945312 151.28125 570.019531 149.742188 538.828125 C 148.203125 505.113281 147.921875 495.042969 147.921875 409.855469 C 147.921875 324.664062 148.203125 314.59375 149.742188 280.882812 C 151.140625 249.828125 156.316406 232.902344 160.792969 221.570312 C 166.527344 206.746094 173.523438 196.113281 184.710938 184.921875 C 195.902344 173.730469 206.535156 166.878906 221.363281 161.003906 C 232.550781 156.667969 249.476562 151.492188 280.671875 149.953125 C 314.382812 148.414062 324.457031 148.132812 409.644531 148.132812 M 409.644531 90.640625 C 322.917969 90.640625 312.144531 91.0625 278.015625 92.601562 C 244.023438 94.136719 220.800781 99.59375 200.519531 107.425781 C 179.535156 115.539062 161.773438 126.453125 144.007812 144.214844 C 126.382812 161.980469 115.46875 179.746094 107.355469 200.730469 C 99.523438 221.011719 94.070312 244.234375 92.53125 278.222656 C 90.992188 312.214844 90.570312 323.125 90.570312 409.714844 C 90.570312 496.441406 90.992188 507.210938 92.53125 541.34375 C 94.070312 575.335938 99.523438 598.554688 107.355469 618.839844 C 115.46875 639.820312 126.382812 657.585938 144.148438 675.351562 C 161.910156 693.117188 179.675781 704.027344 200.660156 712.140625 C 220.941406 719.976562 244.164062 725.429688 278.15625 726.96875 C 312.144531 728.507812 323.058594 728.925781 409.785156 728.925781 C 496.511719 728.925781 507.28125 728.507812 541.414062 726.96875 C 575.40625 725.429688 598.625 719.976562 618.910156 712.140625 C 639.890625 704.027344 657.65625 693.117188 675.421875 675.351562 C 693.1875 657.585938 704.097656 639.820312 712.210938 618.839844 C 720.042969 598.554688 725.5 575.335938 727.039062 541.34375 C 728.578125 507.351562 728.996094 496.441406 728.996094 409.714844 C 728.996094 322.988281 728.578125 312.214844 727.039062 278.085938 C 725.5 244.09375 720.042969 220.871094 712.210938 200.589844 C 704.097656 179.605469 693.1875 161.839844 675.421875 144.078125 C 657.65625 126.3125 639.890625 115.402344 618.910156 107.289062 C 598.625 99.453125 575.40625 94 541.414062 92.460938 C 507.28125 91.0625 496.371094 90.640625 409.644531 90.640625 " fill-opacity="1" fill-rule="nonzero"/></g><path fill="#cae6d5" d="M 409.644531 245.910156 C 319.140625 245.910156 245.839844 319.210938 245.839844 409.714844 C 245.839844 500.21875 319.28125 573.65625 409.785156 573.65625 C 500.289062 573.65625 573.726562 500.359375 573.726562 409.714844 C 573.585938 319.210938 500.148438 245.910156 409.644531 245.910156 M 409.644531 516.164062 C 350.894531 516.164062 303.332031 468.605469 303.332031 409.855469 C 303.332031 351.101562 350.894531 303.542969 409.644531 303.542969 C 468.394531 303.542969 515.957031 351.101562 515.957031 409.855469 C 516.09375 468.464844 468.394531 516.164062 409.644531 516.164062 " fill-opacity="1" fill-rule="nonzero"/><path fill="#cae6d5" d="M 618.351562 239.476562 C 618.351562 260.597656 601.144531 277.804688 580.023438 277.804688 C 558.898438 277.804688 541.695312 260.597656 541.695312 239.476562 C 541.695312 218.355469 558.898438 201.148438 580.023438 201.148438 C 601.144531 201.148438 618.351562 218.214844 618.351562 239.476562 " fill-opacity="1" fill-rule="nonzero"/></svg>