<svg xmlns="http://www.w3.org/2000/svg" xmlns:xlink="http://www.w3.org/1999/xlink" width="1080" zoomAndPan="magnify" viewBox="0 0 810 809.999993" height="1080" preserveAspectRatio="xMidYMid meet" version="1.0"><defs><clipPath id="03bdd6381f"><path d="M 81 149 L 729 149 L 729 674.445312 L 81 674.445312 Z M 81 149 " clip-rule="nonzero"/></clipPath></defs><g clip-path="url(#03bdd6381f)"><path fill="#cae6d5" d="M 662.078125 280.203125 C 662.464844 285.90625 662.464844 291.605469 662.464844 297.347656 C 662.464844 472.625 529.03125 674.757812 285.054688 674.757812 L 285.054688 674.65625 C 212.976562 674.773438 142.402344 654.132812 81.730469 615.199219 C 92.203125 616.453125 102.742188 617.085938 113.308594 617.113281 C 173.035156 617.164062 231.054688 597.121094 278.046875 560.21875 C 221.28125 559.144531 171.507812 522.136719 154.117188 468.097656 C 174.003906 471.941406 194.488281 471.152344 214 465.8125 C 152.113281 453.304688 107.59375 398.933594 107.59375 335.792969 C 107.59375 335.210938 107.59375 334.667969 107.59375 334.109375 C 126.03125 344.378906 146.683594 350.082031 167.796875 350.714844 C 109.519531 311.777344 91.558594 234.246094 126.753906 173.613281 C 194.097656 256.488281 293.460938 306.867188 400.125 312.191406 C 389.429688 266.121094 404.042969 217.851562 438.503906 185.457031 C 491.933594 135.234375 575.957031 137.808594 626.179688 191.210938 C 655.882812 185.355469 684.355469 174.453125 710.414062 159.015625 C 700.507812 189.726562 679.792969 215.808594 652.105469 232.371094 C 678.394531 229.269531 704.089844 222.234375 728.28125 211.488281 C 710.464844 238.175781 688.027344 261.425781 662.078125 280.203125 Z M 662.078125 280.203125 " fill-opacity="1" fill-rule="nonzero"/></g></svg>